<?xml version="1.0" encoding="UTF-8"?>
<svg version="1.1" viewBox="0 0 163 163" xmlns="http://www.w3.org/2000/svg">
    <title>Artboard Copy 2</title>
    <desc>Created with Sketch.</desc>
    <g fill="none" fill-rule="evenodd">
        <g transform="translate(2)" fill="#fff" fill-rule="nonzero">
            <path d="m82.342 0c4.6988 0.0090553 10.563 0.44371 15.21 5.4495 6.0193 7.6643-5.5079 9.3546-6.0195 17.429l-0.013133 0.27776 0.73422 0.099175c14.17 1.9902 26.877 8.1933 36.662 17.206 4.1062-5.0529 1.0201-13.319 9.6397-12.648 6.5812 1.0559 10.058 5.5183 12.566 9.2745 2.4916 3.767 5.2547 8.6913 3.6163 15.072-2.5356 7.2895-8.0453 3.0245-13.751 3.3831 5.1061 8.8887 8.0197 19.061 8.0197 29.881 0 6.1186-0.92662 12.033-2.6562 17.625l-0.24082 0.76054-1.899 3.1639c5.6473-0.4582 10.649-4.803 13.847 2.1968 2.3008 6.3949-0.060547 11.712-2.2531 15.821-2.2109 4.0912-5.3501 9.0028-12.005 10.707-8.0586 1.3764-6.7315-5.8977-10.085-10.817l-0.13482-0.19292-1.6513 2.751c-8.8031 9.2292-20.468 15.966-33.671 19.018 2.8695 3.7471 8.515 4.9605 5.163 10.466-3.2695 4.4842-7.9683 5.3897-11.766 5.8425-3.7998 0.43647-8.5829 0.64112-12.825-2.9647-4.6272-4.64 0.78527-7.1265 2.6182-11.544-9.6429-0.12129-18.797-2.1551-27.037-5.7438l-0.74658-0.33052-3.0383-1.7875c-0.5651 0.55056-1.1889 1.2442-1.9228 2.1588-3.5502 4.8863 2.5319 10.97-4.4126 12.783-4.8933 0.86026-8.4545-1.4307-11.157-3.4628-2.6934-2.0411-5.8675-4.8337-6.3097-9.72-0.045869-7.0903 7.4949-2.8923 11.342-7.554 0.38346-0.49986 0.68252-0.93994 0.94489-1.3565-6.3611-5.1163-11.682-11.337-15.639-18.353-5.7941 3.3813-5.4033 12.514-13.482 9.1169-5.8969-3.0698-7.7536-8.3943-8.9187-12.743-1.1467-4.3538-2.1778-9.8902 1.4348-15.423 4.8107-6.183 8.693-0.21008 14.318 1.1591-0.74307-3.7562-1.1449-7.6228-1.1449-11.58 0-9.4791 2.2402-18.46 6.2253-26.519-5.3318-1.7803-11.012 3.3921-13.201-3.537-1.2201-5.3915 1.2183-9.4592 3.4016-12.56 2.1944-3.0915 5.2217-6.7535 10.77-7.4833 7.1225-0.35316 4.5428 6.2717 7.5995 10.616 10.264-11.974 25.094-20.324 41.997-22.689l0.6958-0.093837-0.013072-0.2777c-0.50987-8.0727-12.037-9.763-6.0196-17.429 4.6437-5.004 10.509-5.4386 15.208-5.4477zm-11.22 113.1c2.6498 12.287 16.778 17.243 25.342 16.88 9.6131 0.019492 17.662-29.282 5.0695-32.39-14.802-2.922-32.159 5.4152-30.411 15.51zm-29.521-52.102-0.36043 0.0036491c-10.317 0.69833-8.6179 26.104-1.1083 27.515 6.6281 1.5708 18.434-0.42707 22.425-10.185 2.8839-7.9196-8.82-17.17-20.595-17.332l-0.36048-0.0020956zm74.108-11.973c-12.789 1.8189-24.198 14.085-19.716 22.268 5.8769 9.806 18.744 9.9357 25.518 7.1146 7.7337-2.8007 5.2671-30.396-5.8021-29.383z"/>
        </g>
    </g>
</svg>
